<svg width="57" height="47" viewBox="0 0 57 47" fill="none" xmlns="http://www.w3.org/2000/svg">
<path d="M53.618 3.35003H51.2623V1.11287C51.2623 0.653591 50.8919 0.283203 50.4326 0.283203H45.4101C44.9509 0.283203 44.5805 0.653591 44.5805 1.11287V3.35003H17.0383V1.11287C17.0383 0.653591 16.6679 0.283203 16.2086 0.283203H11.1862C10.7269 0.283203 10.3565 0.653591 10.3565 1.11287V3.35003H8.41564C6.38591 3.35003 4.72656 5.00937 4.72656 7.03911V27.3216C4.72656 27.7809 5.09695 28.1513 5.55624 28.1513C6.01552 28.1513 6.38591 27.7809 6.38591 27.3216V7.03911C6.38591 5.92794 7.28966 5.00937 8.41564 5.00937H53.6328C54.5217 5.00937 55.2477 5.73534 55.2477 6.62427V34.1812C55.2477 35.0702 54.5217 35.7961 53.6328 35.7961H51.8549V32.6404C51.8549 32.1811 51.4845 31.8108 51.0253 31.8108H42.0766C41.6174 31.8108 41.247 32.1811 41.247 32.6404V35.7961H27.8537L31.0094 34.9368C32.6391 34.4924 34.0762 33.559 35.143 32.2552L40.5062 25.7364C40.6099 25.603 40.684 25.4401 40.6988 25.2771L41.1729 19.0545C41.2173 18.4471 40.8469 17.8397 40.284 17.6026C40.5358 17.4545 40.7136 17.1878 40.7136 16.8767C40.7136 16.4174 40.3432 16.047 39.8839 16.047H36.2393C35.78 16.047 35.4096 16.4174 35.4096 16.8767C35.4096 17.3359 35.78 17.7063 36.2393 17.7063H38.9654C38.8765 17.7656 38.7876 17.8397 38.7135 17.9137L35.6615 20.9657C35.0689 21.5584 34.58 22.2992 34.0614 22.951C33.7799 23.3066 33.8244 23.84 34.1947 24.1215C34.5503 24.403 35.0837 24.3585 35.3652 23.9881L36.3282 22.8029L38.7876 25.2623L33.9133 31.2033C33.0539 32.2404 31.928 32.9812 30.6242 33.3368L17.468 37.1295C16.4457 37.4555 16.9642 39.0408 17.9717 38.7148L20.8607 37.7814V44.7596H19.7051C19.2458 44.7596 18.8754 45.13 18.8754 45.5892C18.8754 46.0485 19.2458 46.4189 19.7051 46.4189H24.8017C25.261 46.4189 25.6313 46.0485 25.6313 45.5892C25.6313 45.13 25.261 44.7596 24.8017 44.7596H22.5349V37.4703H53.6624C55.4699 37.4703 56.9367 36.0036 56.9367 34.1961V6.63909C56.8922 4.81677 55.4255 3.35003 53.618 3.35003ZM46.225 1.94255H49.5881V3.33521H46.225V1.94255ZM12.001 1.94255H15.3642V3.33521H12.001V1.94255ZM39.4691 19.4694L39.1728 23.3214L37.3949 21.5436L39.4691 19.4694ZM42.8767 35.7961V33.4701H50.1659V35.7961H42.8767Z" fill="#00093C"/>
<path d="M15.6749 44.7595H4.97803V40.3297C4.97803 37.5147 5.62992 34.7146 6.85961 32.1959C7.54113 30.8181 8.96342 29.9291 10.5042 29.9291H24.5494C27.4829 29.9291 30.3423 28.8921 32.5943 27.0105C32.9498 26.7142 32.9943 26.1956 32.698 25.84C32.4017 25.4845 31.8831 25.44 31.5275 25.7363C29.5719 27.3661 27.0977 28.2698 24.5642 28.2698H18.5195C19.4529 27.292 20.0307 25.9734 20.0307 24.5215V21.4546C22.1789 21.3065 23.8679 19.5286 23.8679 17.3507C23.8679 15.0839 22.0159 13.232 19.7492 13.232C18.3565 13.2024 17.0379 13.5283 16.0749 14.5802C15.6008 15.0988 14.9193 15.3951 14.223 15.3951H11.9265C10.0153 15.3951 8.4597 16.9507 8.4597 18.8619V25.1141C8.4597 25.8252 8.62267 26.5216 9.05232 27.0994C9.24492 27.3661 9.48197 27.5883 9.74865 27.7661C10.045 27.9587 10.4598 28.0328 10.6968 28.2698C8.4597 28.2254 6.34107 29.455 5.36324 31.47C4.01502 34.2257 3.30387 37.2777 3.30387 40.3445V44.7744H0.829673C0.37039 44.7744 0 45.1448 0 45.604C0 46.0633 0.37039 46.4337 0.829673 46.4337H15.6749C16.1342 46.4337 16.5046 46.0633 16.5046 45.604C16.5194 45.1299 16.1342 44.7595 15.6749 44.7595ZM14.3711 28.2402C13.9118 28.2105 13.4525 28.092 13.0377 27.8994C13.2303 27.7957 13.4229 27.6772 13.5859 27.5438C14.2822 26.966 14.6674 26.1215 14.6674 25.1585V21.4546H18.3565V24.5066C18.3565 26.566 16.6823 28.255 14.6082 28.255C14.5193 28.255 14.4452 28.255 14.3711 28.2402ZM10.1339 25.0993V18.8471C10.1339 17.8545 10.9487 17.0396 11.9414 17.0396H14.223C15.3934 17.0396 16.5046 16.5507 17.3046 15.6914C17.9565 14.9802 18.8454 14.8469 19.764 14.8765C21.1122 14.8765 22.2085 15.9729 22.2085 17.3211C22.2085 18.6693 21.1122 19.7657 19.764 19.7657H13.8377C13.3785 19.7657 13.0081 20.136 13.0081 20.5953V25.1437C13.0081 26.1215 12.1488 26.729 11.2154 26.5512C10.4746 26.4327 10.1339 25.8252 10.1339 25.0993Z" fill="#00093C"/>
<path d="M28.5352 13.0098H33.0687C33.528 13.0098 33.8984 12.6394 33.8984 12.1801V9.1133C33.8984 8.65402 33.528 8.28363 33.0687 8.28363H28.5352C28.0759 8.28363 27.7055 8.65402 27.7055 9.1133V12.1801C27.6907 12.6394 28.0611 13.0098 28.5352 13.0098ZM29.3649 9.94297H32.2391V11.3356H29.3649V9.94297Z" fill="#00093C"/>
<path d="M27.6895 18.3879C27.6895 18.8471 28.0598 19.2175 28.5191 19.2175H33.0527C33.512 19.2175 33.8824 18.8471 33.8824 18.3879V15.321C33.8824 14.8618 33.512 14.4914 33.0527 14.4914H28.5191C28.0598 14.4914 27.6895 14.8618 27.6895 15.321V18.3879ZM29.3636 16.1655H32.2378V17.5582H29.3636V16.1655Z" fill="#00093C"/>
<path d="M36.2086 11.469H50.9945C51.4538 11.469 51.8242 11.0986 51.8242 10.6393C51.8242 10.18 51.4538 9.80963 50.9945 9.80963H36.2086C35.7493 9.80963 35.3789 10.18 35.3789 10.6393C35.3789 11.0986 35.7493 11.469 36.2086 11.469Z" fill="#00093C"/>
</svg>
