<svg width="241" height="26" viewBox="0 0 241 26" fill="none" xmlns="http://www.w3.org/2000/svg">
<path d="M63.7031 9.20312C64.7656 8.14062 66.0469 7.60938 67.5469 7.60938C69.0469 7.60938 70.3125 8.14062 71.3438 9.20312C72.4062 10.2344 72.9375 11.5 72.9375 13C72.9375 14.5 72.4062 15.7812 71.3438 16.8438C70.3125 17.875 69.0469 18.3906 67.5469 18.3906C66.0469 18.3906 64.7656 17.875 63.7031 16.8438C62.6719 15.7812 62.1562 14.5 62.1562 13C62.1562 11.5 62.6719 10.2344 63.7031 9.20312ZM65.0625 15.4844C65.75 16.1719 66.5781 16.5156 67.5469 16.5156C68.5156 16.5156 69.3438 16.1719 70.0312 15.4844C70.7188 14.7969 71.0625 13.9688 71.0625 13C71.0625 12.0312 70.7188 11.2031 70.0312 10.5156C69.3438 9.82812 68.5156 9.48438 67.5469 9.48438C66.5781 9.48438 65.75 9.82812 65.0625 10.5156C64.375 11.2031 64.0312 12.0312 64.0312 13C64.0312 13.9688 64.375 14.7969 65.0625 15.4844ZM74.0156 6.53125C74.2656 6.75 74.3906 7.03125 74.3906 7.375C74.3906 7.71875 74.2656 8.01562 74.0156 8.26562C73.7969 8.51562 73.5156 8.64062 73.1719 8.64062C72.8281 8.64062 72.5312 8.51562 72.2812 8.26562C72.0312 8.01562 71.9062 7.71875 71.9062 7.375C71.9062 7.03125 72.0312 6.75 72.2812 6.53125C72.5312 6.28125 72.8281 6.15625 73.1719 6.15625C73.5156 6.15625 73.7969 6.28125 74.0156 6.53125ZM78 8.6875C78.0312 9.53125 78.0469 10.9688 78.0469 13C78.0469 15.0312 78.0312 16.4688 78 17.3125C77.9062 19.2188 77.3281 20.7031 76.2656 21.7656C75.2344 22.7969 73.7656 23.3438 71.8594 23.4062C71.0156 23.4688 69.5781 23.5 67.5469 23.5C65.5156 23.5 64.0781 23.4688 63.2344 23.4062C61.3281 23.3125 59.8594 22.75 58.8281 21.7188C58.4219 21.3438 58.0938 20.9062 57.8438 20.4062C57.5938 19.9062 57.4062 19.4219 57.2812 18.9531C57.1875 18.4844 57.1406 17.9375 57.1406 17.3125C57.0781 16.4688 57.0469 15.0312 57.0469 13C57.0469 10.9688 57.0781 9.51562 57.1406 8.64062C57.2344 6.76562 57.7969 5.3125 58.8281 4.28125C59.8594 3.21875 61.3281 2.64062 63.2344 2.54688C64.0781 2.51562 65.5156 2.5 67.5469 2.5C69.5781 2.5 71.0156 2.51562 71.8594 2.54688C73.7656 2.64062 75.2344 3.21875 76.2656 4.28125C77.3281 5.3125 77.9062 6.78125 78 8.6875ZM75.75 19.1875C75.8438 18.9375 75.9219 18.625 75.9844 18.25C76.0469 17.8438 76.0938 17.375 76.125 16.8438C76.1562 16.2812 76.1719 15.8281 76.1719 15.4844C76.1719 15.1406 76.1719 14.6562 76.1719 14.0312C76.1719 13.4062 76.1719 13.0625 76.1719 13C76.1719 12.9062 76.1719 12.5625 76.1719 11.9688C76.1719 11.3438 76.1719 10.8594 76.1719 10.5156C76.1719 10.1719 76.1562 9.73438 76.125 9.20312C76.0938 8.64062 76.0469 8.17188 75.9844 7.79688C75.9219 7.39062 75.8438 7.0625 75.75 6.8125C75.375 5.84375 74.7031 5.17188 73.7344 4.79688C73.4844 4.70312 73.1562 4.625 72.75 4.5625C72.375 4.5 71.9062 4.45313 71.3438 4.42188C70.8125 4.39062 70.375 4.375 70.0312 4.375C69.7188 4.375 69.2344 4.375 68.5781 4.375C67.9531 4.375 67.6094 4.375 67.5469 4.375C67.4844 4.375 67.1406 4.375 66.5156 4.375C65.8906 4.375 65.4062 4.375 65.0625 4.375C64.7188 4.375 64.2656 4.39062 63.7031 4.42188C63.1719 4.45313 62.7031 4.5 62.2969 4.5625C61.9219 4.625 61.6094 4.70312 61.3594 4.79688C60.3906 5.17188 59.7188 5.84375 59.3438 6.8125C59.25 7.0625 59.1719 7.39062 59.1094 7.79688C59.0469 8.17188 59 8.64062 58.9688 9.20312C58.9375 9.73438 58.9219 10.1719 58.9219 10.5156C58.9219 10.8281 58.9219 11.3125 58.9219 11.9688C58.9219 12.5938 58.9219 12.9375 58.9219 13C58.9219 13.125 58.9219 13.4219 58.9219 13.8906C58.9219 14.3281 58.9219 14.7031 58.9219 15.0156C58.9219 15.2969 58.9219 15.6719 58.9219 16.1406C58.9531 16.6094 58.9844 17.0156 59.0156 17.3594C59.0469 17.6719 59.0938 18 59.1562 18.3438C59.2188 18.6875 59.2812 18.9688 59.3438 19.1875C59.75 20.1562 60.4219 20.8281 61.3594 21.2031C61.6094 21.2969 61.9219 21.375 62.2969 21.4375C62.7031 21.5 63.1719 21.5469 63.7031 21.5781C64.2656 21.6094 64.7031 21.625 65.0156 21.625C65.3594 21.625 65.8438 21.625 66.4688 21.625C67.125 21.625 67.4844 21.625 67.5469 21.625C67.6406 21.625 67.9844 21.625 68.5781 21.625C69.2031 21.625 69.6875 21.625 70.0312 21.625C70.375 21.625 70.8125 21.6094 71.3438 21.5781C71.9062 21.5469 72.375 21.5 72.75 21.4375C73.1562 21.375 73.4844 21.2969 73.7344 21.2031C74.7031 20.7969 75.375 20.125 75.75 19.1875Z" fill="url(#paint0_linear_88_6239)"/>
<path d="M25.5469 6.53125C25.4531 7 25.0781 7.76562 24.4219 8.82812C23.7969 9.89062 23.2188 10.8281 22.6875 11.6406C22.1562 12.4219 21.875 12.8281 21.8438 12.8594C21.6562 13.1406 21.5625 13.3438 21.5625 13.4688C21.5625 13.5938 21.6562 13.8125 21.8438 14.125C21.8438 14.125 21.9375 14.2344 22.125 14.4531C22.3438 14.6719 22.5938 14.9219 22.875 15.2031C23.1562 15.4844 23.4688 15.8125 23.8125 16.1875C24.1562 16.5625 24.4688 16.9375 24.75 17.3125C25.0625 17.6562 25.3281 18.0156 25.5469 18.3906C25.7969 18.7656 25.9688 19.0781 26.0625 19.3281C26.2812 20.1094 25.9688 20.5 25.125 20.5H22.3594C22.1406 20.5 21.9531 20.4688 21.7969 20.4062C21.6406 20.3438 21.4688 20.2344 21.2812 20.0781C21.0938 19.9219 20.9219 19.75 20.7656 19.5625C20.6094 19.375 20.375 19.1094 20.0625 18.7656C19.75 18.4219 19.4375 18.0938 19.125 17.7812C17.875 16.5938 16.9531 16 16.3594 16C15.9844 16 15.7656 16.1094 15.7031 16.3281C15.6406 16.5469 15.6094 17.1719 15.6094 18.2031C15.6406 18.7031 15.6562 19.1094 15.6562 19.4219C15.6562 19.7969 15.5312 20.0781 15.2812 20.2656C15.0312 20.4219 14.4844 20.5 13.6406 20.5C12.1719 20.5 10.6875 20.0625 9.1875 19.1875C7.6875 18.3125 6.375 17.0625 5.25 15.4375C4.1875 14 3.29688 12.5781 2.57812 11.1719C1.89062 9.73438 1.4375 8.64062 1.21875 7.89062C1 7.14062 0.890625 6.60938 0.890625 6.29688C0.890625 5.76563 1.20312 5.5 1.82812 5.5H4.59375C4.9375 5.5 5.1875 5.57813 5.34375 5.73438C5.53125 5.89062 5.6875 6.17187 5.8125 6.57812C6.46875 8.48438 7.26562 10.1875 8.20312 11.6875C9.17188 13.1875 9.90625 13.9375 10.4062 13.9375C10.5938 13.9375 10.7188 13.875 10.7812 13.75C10.875 13.5938 10.9219 13.3125 10.9219 12.9062V8.82812C10.8906 8.39062 10.8125 8.01562 10.6875 7.70312C10.5625 7.39062 10.4375 7.17188 10.3125 7.04688C10.1875 6.89063 10.0625 6.73437 9.9375 6.57812C9.84375 6.42188 9.79688 6.28125 9.79688 6.15625C9.79688 6.03125 9.82812 5.92188 9.89062 5.82812C9.95312 5.73438 10.0312 5.65625 10.125 5.59375C10.25 5.53125 10.375 5.5 10.5 5.5H14.8594C15.3594 5.5 15.6094 5.84375 15.6094 6.53125V11.9688C15.6094 12.5 15.75 12.7656 16.0312 12.7656C16.3438 12.7656 16.7812 12.4844 17.3438 11.9219C17.9375 11.2656 18.5156 10.4688 19.0781 9.53125C19.6406 8.59375 20.0625 7.8125 20.3438 7.1875L20.7656 6.29688C20.9844 5.76563 21.375 5.5 21.9375 5.5H24.7031C25.4531 5.5 25.7344 5.84375 25.5469 6.53125Z" fill="url(#paint1_linear_88_6239)"/>
<path d="M240 5.64062L236.812 20.5469C236.562 21.6094 235.984 21.8906 235.078 21.3906L230.25 17.8281L227.906 20.0781C227.594 20.3906 227.266 20.5469 226.922 20.5469L227.297 15.625L236.25 7.5625C236.469 7.34375 236.469 7.21875 236.25 7.1875C236.062 7.125 235.859 7.17188 235.641 7.32812L224.578 14.3125L219.797 12.8125C219.266 12.6562 219.016 12.4219 219.047 12.1094C219.078 11.7969 219.406 11.5312 220.031 11.3125L238.641 4.09375C239.109 3.9375 239.484 4 239.766 4.28125C240.047 4.53125 240.125 4.98438 240 5.64062Z" fill="url(#paint2_linear_88_6239)"/>
<path d="M187.781 6.8125C187.875 7.1875 187.953 7.65625 188.016 8.21875C188.109 8.78125 188.172 9.34375 188.203 9.90625C188.234 10.4375 188.25 10.9375 188.25 11.4062C188.281 11.875 188.297 12.2656 188.297 12.5781V13C188.297 15.8125 188.125 17.8906 187.781 19.2344C187.625 19.7656 187.344 20.2344 186.938 20.6406C186.531 21.0469 186.047 21.3281 185.484 21.4844C184.891 21.6406 183.766 21.7656 182.109 21.8594C180.453 21.9219 178.938 21.9688 177.562 22H175.5C170.156 22 166.828 21.8281 165.516 21.4844C164.297 21.1406 163.531 20.3906 163.219 19.2344C163.062 18.6406 162.938 17.8281 162.844 16.7969C162.781 15.7344 162.734 14.8438 162.703 14.125V13C162.703 10.2188 162.875 8.15625 163.219 6.8125C163.375 6.25 163.656 5.76563 164.062 5.35938C164.469 4.95312 164.953 4.67187 165.516 4.51562C166.109 4.35938 167.234 4.25 168.891 4.1875C170.547 4.09375 172.062 4.03125 173.438 4H175.5C180.844 4 184.172 4.17188 185.484 4.51562C186.047 4.67187 186.531 4.95312 186.938 5.35938C187.344 5.76563 187.625 6.25 187.781 6.8125ZM172.875 16.8438L179.578 13L172.875 9.20312V16.8438Z" fill="url(#paint3_linear_88_6239)"/>
<path d="M131.625 13C131.625 15.875 130.688 18.4062 128.812 20.5938C126.938 22.75 124.609 24.0469 121.828 24.4844V16.375H124.547L125.062 13H121.828V10.7969C121.828 9.60938 122.453 9.01562 123.703 9.01562H125.156V6.15625C124.281 6 123.422 5.92188 122.578 5.92188C121.672 5.92188 120.891 6.09375 120.234 6.4375C119.609 6.78125 119.109 7.29687 118.734 7.98438C118.359 8.67188 118.172 9.48438 118.172 10.4219V13H115.219V16.375H118.172V24.4844C115.391 24.0469 113.062 22.75 111.188 20.5938C109.312 18.4062 108.375 15.875 108.375 13C108.375 9.78125 109.5 7.04688 111.75 4.79688C114.031 2.51562 116.781 1.375 120 1.375C123.219 1.375 125.953 2.51562 128.203 4.79688C130.484 7.04688 131.625 9.78125 131.625 13Z" fill="url(#paint4_linear_88_6239)"/>
<defs>
<linearGradient id="paint0_linear_88_6239" x1="57" y1="13" x2="78" y2="13" gradientUnits="userSpaceOnUse">
<stop stop-color="#F7941D"/>
<stop offset="1" stop-color="#27AAE1"/>
</linearGradient>
<linearGradient id="paint1_linear_88_6239" x1="0" y1="13" x2="27" y2="13" gradientUnits="userSpaceOnUse">
<stop stop-color="#F7941D"/>
<stop offset="1" stop-color="#27AAE1"/>
</linearGradient>
<linearGradient id="paint2_linear_88_6239" x1="219" y1="13" x2="240" y2="13" gradientUnits="userSpaceOnUse">
<stop stop-color="#F7941D"/>
<stop offset="1" stop-color="#27AAE1"/>
</linearGradient>
<linearGradient id="paint3_linear_88_6239" x1="162" y1="13" x2="189" y2="13" gradientUnits="userSpaceOnUse">
<stop stop-color="#F7941D"/>
<stop offset="1" stop-color="#27AAE1"/>
</linearGradient>
<linearGradient id="paint4_linear_88_6239" x1="108" y1="13" x2="132" y2="13" gradientUnits="userSpaceOnUse">
<stop stop-color="#F7941D"/>
<stop offset="1" stop-color="#27AAE1"/>
</linearGradient>
</defs>
</svg>
