<svg width="84" height="59" viewBox="0 0 84 59" fill="none" xmlns="http://www.w3.org/2000/svg">
<path d="M13.6694 58.6439C6.13054 58.6439 0 52.5134 0 44.9745C0 37.4356 6.13054 31.3051 13.6694 31.3051C21.2083 31.3051 27.3389 37.4356 27.3389 44.9745C27.3389 52.5548 21.2083 58.6439 13.6694 58.6439Z" fill="white"/>
<path d="M13.6694 58.6439C6.13054 58.6439 0 52.5134 0 44.9745C0 37.4356 6.13054 31.3051 13.6694 31.3051C21.2083 31.3051 27.3389 37.4356 27.3389 44.9745C27.3389 52.5548 21.2083 58.6439 13.6694 58.6439Z" fill="white"/>
<path d="M45.9791 1.52203L31.1498 25.7542C30.7356 26.4584 31.1912 27.3283 31.9783 27.3283H46.8075H61.6368C62.4238 27.3283 62.8795 26.417 62.4652 25.7542L47.636 1.52203C47.2218 0.900696 46.3519 0.900696 45.9791 1.52203Z" fill="white"/>
<path d="M27.0487 5.62311L21.7052 0.279602C21.3324 -0.0932007 20.6697 -0.0932007 20.2969 0.279602L14.4149 6.1616C14.0421 6.5344 13.3793 6.5344 13.0065 6.1616L7.12449 0.279602C6.75168 -0.0932007 6.08893 -0.0932007 5.71612 0.279602L0.37262 5.62311C-0.000183128 5.99591 -0.000183128 6.65867 0.37262 7.03148L6.25461 12.9135C6.62741 13.2863 6.62741 13.949 6.25461 14.3218L0.37262 20.2038C-0.000183128 20.5766 -0.000183128 21.2394 0.37262 21.6122L5.71612 26.9557C6.08893 27.3285 6.75168 27.3285 7.12449 26.9557L13.0065 21.0737C13.3793 20.7009 14.0421 20.7009 14.4149 21.0737L20.2969 26.9557C20.6697 27.3285 21.3324 27.3285 21.7052 26.9557L27.0487 21.6122C27.4215 21.2394 27.4215 20.5766 27.0487 20.2038L21.1667 14.3218C20.7939 13.949 20.7939 13.2863 21.1667 12.9135L27.0487 7.03148C27.463 6.65867 27.463 6.03733 27.0487 5.62311Z" fill="white"/>
</svg>
